<svg width="208" height="58" viewBox="0 0 208 58" fill="none" xmlns="http://www.w3.org/2000/svg">
<g filter="url(#filter0_d)">
<rect x="4" width="200" height="50" rx="4" fill="#2196F3"/>
</g>
<path d="M60.4891 30H57.7469V20.7422H53.6609V30H50.9188V18.625H60.4891V30ZM62.7069 25.6953C62.7069 24.8516 62.8709 24.1016 63.1991 23.4453C63.5272 22.7839 63.9985 22.276 64.6131 21.9219C65.2277 21.5677 65.9491 21.3906 66.7772 21.3906C68.0428 21.3906 69.0402 21.7839 69.7694 22.5703C70.4985 23.3516 70.8631 24.4167 70.8631 25.7656V25.8594C70.8631 27.1771 70.4959 28.224 69.7616 29C69.0324 29.7708 68.0428 30.1562 66.7928 30.1562C65.5897 30.1562 64.6235 29.7969 63.8944 29.0781C63.1652 28.3542 62.772 27.375 62.7147 26.1406L62.7069 25.6953ZM65.3397 25.8594C65.3397 26.6406 65.4621 27.2135 65.7069 27.5781C65.9517 27.9427 66.3136 28.125 66.7928 28.125C67.7303 28.125 68.2095 27.4036 68.2303 25.9609V25.6953C68.2303 24.1797 67.7459 23.4219 66.7772 23.4219C65.897 23.4219 65.4204 24.0755 65.3475 25.3828L65.3397 25.8594ZM72.6434 27.9688C73.0653 27.5469 73.37 27.1276 73.5575 26.7109C73.7502 26.2943 73.8622 25.8099 73.8934 25.2578L73.9169 24.6797L73.9638 21.5469H80.5497V27.9688H81.8153V32.5625H79.1747V30H74.5966V32.5625H71.8934L71.8856 27.9688H72.6434ZM75.6747 27.9688H77.9247V23.5781H76.5731L76.5653 24.2734C76.5289 25.7943 76.232 27.026 75.6747 27.9688ZM91.0956 30H88.4472V23.5781H86.1191V30H83.4863V21.5469H91.0956V30ZM98.3838 21.5469H101.024V30H98.3838V25.0781L96.0634 30H93.415V21.5469H96.0634V26.4531L98.3838 21.5469ZM106.969 28.125C107.339 28.125 107.625 28.026 107.828 27.8281C108.031 27.625 108.13 27.3438 108.125 26.9844H110.594C110.594 27.9115 110.26 28.6719 109.594 29.2656C108.932 29.8594 108.078 30.1562 107.031 30.1562C105.802 30.1562 104.833 29.7708 104.125 29C103.417 28.2292 103.062 27.1615 103.062 25.7969V25.6875C103.062 24.8333 103.219 24.0807 103.531 23.4297C103.849 22.7734 104.305 22.2708 104.898 21.9219C105.492 21.5677 106.195 21.3906 107.008 21.3906C108.107 21.3906 108.979 21.6953 109.625 22.3047C110.271 22.9141 110.594 23.7396 110.594 24.7812H108.125C108.125 24.3438 108.018 24.0078 107.805 23.7734C107.591 23.5391 107.305 23.4219 106.945 23.4219C106.263 23.4219 105.865 23.8568 105.75 24.7266C105.714 25.0026 105.695 25.3828 105.695 25.8672C105.695 26.7161 105.797 27.3047 106 27.6328C106.203 27.9609 106.526 28.125 106.969 28.125ZM117.429 30C117.335 29.8281 117.252 29.5755 117.179 29.2422C116.694 29.8516 116.017 30.1562 115.147 30.1562C114.351 30.1562 113.674 29.9167 113.116 29.4375C112.559 28.9531 112.28 28.3464 112.28 27.6172C112.28 26.7005 112.619 26.0078 113.296 25.5391C113.973 25.0703 114.957 24.8359 116.249 24.8359H117.062V24.3906C117.062 23.6146 116.726 23.2266 116.054 23.2266C115.429 23.2266 115.116 23.5339 115.116 24.1484H112.483C112.483 23.3307 112.83 22.6667 113.522 22.1562C114.22 21.6458 115.108 21.3906 116.187 21.3906C117.265 21.3906 118.116 21.6536 118.741 22.1797C119.366 22.7057 119.687 23.4271 119.702 24.3438V28.0859C119.713 28.862 119.832 29.4557 120.062 29.8672V30H117.429ZM115.78 28.2812C116.108 28.2812 116.379 28.2109 116.593 28.0703C116.812 27.9297 116.968 27.7708 117.062 27.5938V26.2422H116.296C115.379 26.2422 114.921 26.6536 114.921 27.4766C114.921 27.7161 115.002 27.9115 115.163 28.0625C115.325 28.2083 115.53 28.2812 115.78 28.2812ZM129.404 23.5625H126.74V30H124.092V23.5625H121.467V21.5469H129.404V23.5625ZM134.177 23.8672H135.528C136.31 23.8672 136.997 23.9948 137.591 24.25C138.185 24.5052 138.638 24.8672 138.95 25.3359C139.263 25.8047 139.419 26.349 139.419 26.9688C139.419 27.8802 139.065 28.6146 138.357 29.1719C137.653 29.724 136.693 30 135.474 30H131.528V21.5469H134.177V23.8672ZM134.177 25.8906V27.9844H135.513C135.914 27.9844 136.226 27.8932 136.45 27.7109C136.679 27.5234 136.794 27.2708 136.794 26.9531C136.794 26.6406 136.693 26.3854 136.489 26.1875C136.286 25.9896 135.961 25.8906 135.513 25.8906H134.177ZM144.934 28.125C145.304 28.125 145.59 28.026 145.793 27.8281C145.996 27.625 146.095 27.3438 146.09 26.9844H148.559C148.559 27.9115 148.225 28.6719 147.559 29.2656C146.897 29.8594 146.043 30.1562 144.996 30.1562C143.767 30.1562 142.798 29.7708 142.09 29C141.382 28.2292 141.027 27.1615 141.027 25.7969V25.6875C141.027 24.8333 141.184 24.0807 141.496 23.4297C141.814 22.7734 142.27 22.2708 142.863 21.9219C143.457 21.5677 144.16 21.3906 144.973 21.3906C146.072 21.3906 146.944 21.6953 147.59 22.3047C148.236 22.9141 148.559 23.7396 148.559 24.7812H146.09C146.09 24.3438 145.983 24.0078 145.77 23.7734C145.556 23.5391 145.27 23.4219 144.91 23.4219C144.228 23.4219 143.83 23.8568 143.715 24.7266C143.679 25.0026 143.66 25.3828 143.66 25.8672C143.66 26.7161 143.762 27.3047 143.965 27.6328C144.168 27.9609 144.491 28.125 144.934 28.125ZM157.988 21.5469V30H155.363V27.2031H154.347L152.855 30H150.23L151.964 26.7578C151.459 26.5182 151.068 26.2005 150.792 25.8047C150.521 25.4089 150.386 24.9609 150.386 24.4609C150.386 23.6016 150.73 22.9062 151.417 22.375C152.105 21.8385 153.001 21.5625 154.105 21.5469H157.988ZM153.019 24.5547C153.019 24.8099 153.123 25.0312 153.331 25.2188C153.545 25.401 153.818 25.4974 154.152 25.5078H155.363V23.5625H154.191C153.847 23.5625 153.566 23.6589 153.347 23.8516C153.128 24.0443 153.019 24.2786 153.019 24.5547Z" fill="white"/>
<defs>
<filter id="filter0_d" x="0" y="0" width="208" height="58" filterUnits="userSpaceOnUse" color-interpolation-filters="sRGB">
<feFlood flood-opacity="0" result="BackgroundImageFix"/>
<feColorMatrix in="SourceAlpha" type="matrix" values="0 0 0 0 0 0 0 0 0 0 0 0 0 0 0 0 0 0 127 0"/>
<feOffset dy="4"/>
<feGaussianBlur stdDeviation="2"/>
<feColorMatrix type="matrix" values="0 0 0 0 0 0 0 0 0 0 0 0 0 0 0 0 0 0 0.15 0"/>
<feBlend mode="normal" in2="BackgroundImageFix" result="effect1_dropShadow"/>
<feBlend mode="normal" in="SourceGraphic" in2="effect1_dropShadow" result="shape"/>
</filter>
</defs>
</svg>
