<svg width="278" height="58" viewBox="0 0 278 58" fill="none" xmlns="http://www.w3.org/2000/svg">
<g filter="url(#filter0_d)">
<rect x="4.5" y="0.5" width="269" height="49" rx="3.5" stroke="white" stroke-opacity="0.3"/>
</g>
<path d="M23.75 24.7422H18.8203V28.7734H24.5469V30H17.3203V18.625H24.4688V19.8594H18.8203V23.5156H23.75V24.7422ZM29.6753 25.7578H25.8628V24.5781H29.6753V25.7578ZM32.9288 21.5469L32.9678 22.4844C33.5876 21.7552 34.4235 21.3906 35.4756 21.3906C36.6579 21.3906 37.4626 21.8438 37.8897 22.75C38.1709 22.3438 38.5355 22.0156 38.9834 21.7656C39.4366 21.5156 39.9704 21.3906 40.585 21.3906C42.4392 21.3906 43.3819 22.3724 43.4131 24.3359V30H41.9678V24.4219C41.9678 23.8177 41.8298 23.3672 41.5538 23.0703C41.2777 22.7682 40.8142 22.6172 40.1631 22.6172C39.6267 22.6172 39.1814 22.7786 38.8272 23.1016C38.473 23.4193 38.2673 23.849 38.21 24.3906V30H36.7569V24.4609C36.7569 23.2318 36.1553 22.6172 34.9522 22.6172C34.0043 22.6172 33.3558 23.0208 33.0069 23.8281V30H31.5616V21.5469H32.9288ZM51.2994 30C51.216 29.8333 51.1483 29.5365 51.0963 29.1094C50.4244 29.8073 49.6223 30.1562 48.69 30.1562C47.8567 30.1562 47.1718 29.9219 46.6353 29.4531C46.1041 28.9792 45.8384 28.3802 45.8384 27.6562C45.8384 26.776 46.1718 26.0938 46.8384 25.6094C47.5103 25.1198 48.453 24.875 49.6666 24.875H51.0728V24.2109C51.0728 23.7057 50.9218 23.3047 50.6197 23.0078C50.3176 22.7057 49.8723 22.5547 49.2838 22.5547C48.7681 22.5547 48.3358 22.6849 47.9869 22.9453C47.6379 23.2057 47.4634 23.5208 47.4634 23.8906H46.0103C46.0103 23.4688 46.1588 23.0625 46.4556 22.6719C46.7577 22.276 47.164 21.9635 47.6744 21.7344C48.19 21.5052 48.7551 21.3906 49.3697 21.3906C50.3436 21.3906 51.1067 21.6354 51.6588 22.125C52.2108 22.6094 52.4973 23.2786 52.5181 24.1328V28.0234C52.5181 28.7995 52.6171 29.4167 52.815 29.875V30H51.2994ZM48.9009 28.8984C49.3541 28.8984 49.7838 28.7812 50.19 28.5469C50.5963 28.3125 50.8905 28.0078 51.0728 27.6328V25.8984H49.94C48.1692 25.8984 47.2838 26.4167 47.2838 27.4531C47.2838 27.9062 47.4348 28.2604 47.7369 28.5156C48.039 28.7708 48.427 28.8984 48.9009 28.8984ZM56.8341 30H55.3887V21.5469H56.8341V30ZM55.2716 19.3047C55.2716 19.0703 55.3419 18.8724 55.4825 18.7109C55.6283 18.5495 55.8419 18.4688 56.1231 18.4688C56.4044 18.4688 56.6179 18.5495 56.7637 18.7109C56.9096 18.8724 56.9825 19.0703 56.9825 19.3047C56.9825 19.5391 56.9096 19.7344 56.7637 19.8906C56.6179 20.0469 56.4044 20.125 56.1231 20.125C55.8419 20.125 55.6283 20.0469 55.4825 19.8906C55.3419 19.7344 55.2716 19.5391 55.2716 19.3047ZM61.2047 30H59.7594V18H61.2047V30Z" fill="white" fill-opacity="0.6"/>
<defs>
<filter id="filter0_d" x="0" y="0" width="278" height="58" filterUnits="userSpaceOnUse" color-interpolation-filters="sRGB">
<feFlood flood-opacity="0" result="BackgroundImageFix"/>
<feColorMatrix in="SourceAlpha" type="matrix" values="0 0 0 0 0 0 0 0 0 0 0 0 0 0 0 0 0 0 127 0"/>
<feOffset dy="4"/>
<feGaussianBlur stdDeviation="2"/>
<feColorMatrix type="matrix" values="0 0 0 0 0 0 0 0 0 0 0 0 0 0 0 0 0 0 0.15 0"/>
<feBlend mode="normal" in2="BackgroundImageFix" result="effect1_dropShadow"/>
<feBlend mode="normal" in="SourceGraphic" in2="effect1_dropShadow" result="shape"/>
</filter>
</defs>
</svg>
